<?xml version="1.0" encoding="UTF-8" standalone="no"?>
<!-- Generator: Adobe Illustrator 17.0.1, SVG Export Plug-In . SVG Version: 6.00 Build 0)  -->

<svg
   xmlns:dc="http://purl.org/dc/elements/1.1/"
   xmlns:cc="http://creativecommons.org/ns#"
   xmlns:rdf="http://www.w3.org/1999/02/22-rdf-syntax-ns#"
   xmlns:svg="http://www.w3.org/2000/svg"
   xmlns="http://www.w3.org/2000/svg"
   xmlns:xlink="http://www.w3.org/1999/xlink"
   xmlns:sodipodi="http://sodipodi.sourceforge.net/DTD/sodipodi-0.dtd"
   xmlns:inkscape="http://www.inkscape.org/namespaces/inkscape"
   version="1.1"
   x="0px"
   y="0px"
   width="512"
   height="512"
   viewBox="0 0 512 512"
   enable-background="new 0 0 86 86"
   xml:space="preserve"
   id="svg2"
   inkscape:version="0.92+devel unknown"
   inkscape:export-xdpi="90"
   inkscape:export-ydpi="90"
   sodipodi:docname="cover.svg"><metadata
     id="metadata29"><rdf:RDF><cc:Work
         rdf:about=""><dc:format>image/svg+xml</dc:format><dc:type
           rdf:resource="http://purl.org/dc/dcmitype/StillImage" /><dc:title></dc:title></cc:Work></rdf:RDF></metadata><defs
     id="defs27"><linearGradient
       y2="85.283302"
       x2="85.282898"
       y1="12.8066"
       x1="12.8062"
       gradientUnits="userSpaceOnUse"
       id="SVGID_1_"><stop
         id="stop7"
         style="stop-color:#0f6fc9;stop-opacity:1"
         offset="0.0049" /><stop
         id="stop9"
         style="stop-color:#0fb3e9;stop-opacity:1"
         offset="1" /></linearGradient><linearGradient
       spreadMethod="pad"
       gradientUnits="userSpaceOnUse"
       y2="29.143038"
       x2="25.399216"
       y1="29.143038"
       x1="-29.593582"
       id="linearGradient10935"
       xlink:href="#linearGradient10925"
       inkscape:collect="always" /><linearGradient
       id="linearGradient10925"><stop
         id="stop10927"
         offset="0"
         style="stop-color:#ffffff;stop-opacity:0.39215687;" /><stop
         id="stop10929"
         offset="1"
         style="stop-color:#ffffff;stop-opacity:0;" /></linearGradient><clipPath
       id="clipPath16"
       clipPathUnits="userSpaceOnUse"><path
         inkscape:connector-curvature="0"
         id="path18"
         d="M 0,283.46 H 283.46 V 0 H 0 Z" /></clipPath><clipPath
       id="clipPath28"
       clipPathUnits="userSpaceOnUse"><path
         inkscape:connector-curvature="0"
         id="path30"
         d="M 0,283.46 H 283.46 V 0 H 0 Z" /></clipPath></defs><sodipodi:namedview
     pagecolor="#cccccc"
     bordercolor="#666666"
     borderopacity="1"
     objecttolerance="10"
     gridtolerance="10"
     guidetolerance="10"
     inkscape:pageopacity="0"
     inkscape:pageshadow="2"
     inkscape:window-width="1920"
     inkscape:window-height="1136"
     id="namedview25"
     showgrid="true"
     inkscape:zoom="1.8164062"
     inkscape:cx="256"
     inkscape:cy="256"
     inkscape:window-x="0"
     inkscape:window-y="27"
     inkscape:window-maximized="1"
     inkscape:current-layer="svg2"
     showguides="true"
     inkscape:snap-global="false"
     inkscape:showpageshadow="false"
     inkscape:pagecheckerboard="false"
     fit-margin-top="2"
     fit-margin-left="2"
     fit-margin-right="2"
     fit-margin-bottom="2"><inkscape:grid
       type="xygrid"
       id="grid10926"
       empspacing="8"
       visible="true"
       enabled="true"
       snapvisiblegridlinesonly="true"
       spacingx="8"
       spacingy="8" /></sodipodi:namedview><g
     id="Layer_2"
     display="none"
     style="display:none"
     transform="translate(0,426)" /><g
     clip-path="url(#clipPath28)"
     id="g26"
     transform="matrix(2.0855654,0,0,-2.0855654,-39.587184,548.82882)"
     style="fill:#ffffff;fill-opacity:1"><g
       transform="translate(186.7065,78.6084)"
       id="g32"
       style="fill:#ffffff;fill-opacity:1"><path
         inkscape:connector-curvature="0"
         id="path34"
         style="fill:#ffffff;fill-opacity:1;fill-rule:nonzero;stroke:none"
         d="m 0,0 c -4.537,0 -7.937,3.402 -7.937,7.937 0,4.918 3.4,8.697 7.937,8.697 4.917,0 8.695,-3.779 8.695,-8.697 C 8.695,3.402 4.917,0 0,0 M -96.755,31.749 V 117.93 H 6.427 V 31.749 c -13.606,-4.153 -32.883,-6.421 -51.399,-6.421 -18.525,0 -37.8,2.645 -51.783,6.421 M -89.193,0 c -4.536,0 -7.937,3.402 -7.937,7.937 0,4.918 3.401,8.697 7.937,8.697 4.91,0 8.689,-3.779 8.689,-8.697 C -80.504,3.402 -84.283,0 -89.193,0 M 17.39,130.026 11.338,144.385 c -1.885,4.16 -4.151,6.426 -8.688,7.56 -15.123,3.778 -26.079,5.295 -40.444,5.67 v 12.473 h 26.455 c 3.402,0 6.427,3.026 6.427,6.802 0,4.16 -3.025,7.178 -6.427,7.178 h -66.898 c -4.153,0 -7.179,-3.018 -7.179,-7.178 0,-3.776 3.026,-6.802 7.179,-6.802 h 26.078 v -12.473 c -14.739,-0.375 -26.454,-1.892 -40.435,-5.67 -4.918,-1.509 -7.562,-3.4 -9.454,-7.56 l -6.045,-14.359 c -1.893,-4.534 -1.893,-10.588 -1.893,-15.123 V -12.753 c 0,-6.42 4.16,-10.205 10.589,-11.339 19.275,-3.778 35.9,-5.286 54.425,-5.286 17.759,0 34.767,1.508 54.425,5.286
         6.045,1.134 10.58,4.919 10.58,11.339 v 127.656 c 0,4.535 -0.758,10.589 -2.643,15.123 M 4.16,-46.862 c 3.401,0 6.802,-3.028 6.802,-6.429 0,-4.534 -3.401,-7.179 -6.802,-7.179 h -98.272 c -3.776,0 -6.42,2.645 -6.42,7.179 0,3.401 2.644,6.429 6.42,6.429 h 10.589 v 10.58 l 13.223,-1.511 v -9.069 h 50.648 v 9.069 l 13.23,1.511 v -10.58 z" /></g></g></svg>
