<?xml version="1.0" encoding="UTF-8" standalone="no"?>
<!-- Generator: Adobe Illustrator 17.0.1, SVG Export Plug-In . SVG Version: 6.00 Build 0)  -->

<svg
   xmlns:dc="http://purl.org/dc/elements/1.1/"
   xmlns:cc="http://creativecommons.org/ns#"
   xmlns:rdf="http://www.w3.org/1999/02/22-rdf-syntax-ns#"
   xmlns:svg="http://www.w3.org/2000/svg"
   xmlns="http://www.w3.org/2000/svg"
   xmlns:xlink="http://www.w3.org/1999/xlink"
   xmlns:sodipodi="http://sodipodi.sourceforge.net/DTD/sodipodi-0.dtd"
   xmlns:inkscape="http://www.inkscape.org/namespaces/inkscape"
   version="1.1"
   x="0px"
   y="0px"
   width="512"
   height="512"
   viewBox="0 0 512 512"
   enable-background="new 0 0 86 86"
   xml:space="preserve"
   id="svg2"
   inkscape:version="0.92+devel unknown"
   inkscape:export-xdpi="90"
   inkscape:export-ydpi="90"
   sodipodi:docname="cover.svg"><metadata
     id="metadata29"><rdf:RDF><cc:Work
         rdf:about=""><dc:format>image/svg+xml</dc:format><dc:type
           rdf:resource="http://purl.org/dc/dcmitype/StillImage" /><dc:title /></cc:Work></rdf:RDF></metadata><defs
     id="defs27"><linearGradient
       y2="85.283302"
       x2="85.282898"
       y1="12.8066"
       x1="12.8062"
       gradientUnits="userSpaceOnUse"
       id="SVGID_1_"><stop
         id="stop7"
         style="stop-color:#0f6fc9;stop-opacity:1"
         offset="0.0049" /><stop
         id="stop9"
         style="stop-color:#0fb3e9;stop-opacity:1"
         offset="1" /></linearGradient><linearGradient
       spreadMethod="pad"
       gradientUnits="userSpaceOnUse"
       y2="29.143038"
       x2="25.399216"
       y1="29.143038"
       x1="-29.593582"
       id="linearGradient10935"
       xlink:href="#linearGradient10925"
       inkscape:collect="always" /><linearGradient
       id="linearGradient10925"><stop
         id="stop10927"
         offset="0"
         style="stop-color:#ffffff;stop-opacity:0.39215687;" /><stop
         id="stop10929"
         offset="1"
         style="stop-color:#ffffff;stop-opacity:0;" /></linearGradient><clipPath
       id="clipPath16"
       clipPathUnits="userSpaceOnUse"><path
         inkscape:connector-curvature="0"
         id="path18"
         d="M 0,283.46 H 283.46 V 0 H 0 Z" /></clipPath><clipPath
       id="clipPath28"
       clipPathUnits="userSpaceOnUse"><path
         inkscape:connector-curvature="0"
         id="path30"
         d="M 0,283.46 H 283.46 V 0 H 0 Z" /></clipPath><radialGradient
       inkscape:collect="always"
       xlink:href="#SVGID_1_-6"
       id="radialGradient11002"
       gradientUnits="userSpaceOnUse"
       gradientTransform="matrix(1.0021,0,0,1.0021,2.506,-0.5573)"
       cx="40.4091"
       cy="43.466"
       r="42.6105" /><radialGradient
       id="SVGID_1_-6"
       cx="40.4091"
       cy="43.466"
       r="42.6105"
       gradientTransform="matrix(1.0021,0,0,1.0021,2.506,-0.5573)"
       gradientUnits="userSpaceOnUse"><stop
         offset="0"
         style="stop-color:#0fb3e9;stop-opacity:1;"
         id="stop9-7" /><stop
         offset="1"
         style="stop-color:#0e85d2"
         id="stop11" /></radialGradient><clipPath
       clipPathUnits="userSpaceOnUse"
       id="clipPath36"><path
         d="M 0,283.46 H 283.46 V 0 H 0 Z"
         id="path34-5"
         inkscape:connector-curvature="0" /></clipPath></defs><sodipodi:namedview
     pagecolor="#cccccc"
     bordercolor="#666666"
     borderopacity="1"
     objecttolerance="10"
     gridtolerance="10"
     guidetolerance="10"
     inkscape:pageopacity="0"
     inkscape:pageshadow="2"
     inkscape:window-width="1920"
     inkscape:window-height="1136"
     id="namedview25"
     showgrid="true"
     inkscape:zoom="1.75"
     inkscape:cx="256"
     inkscape:cy="256"
     inkscape:window-x="0"
     inkscape:window-y="27"
     inkscape:window-maximized="1"
     inkscape:current-layer="svg2"
     showguides="true"
     inkscape:snap-global="false"
     inkscape:showpageshadow="false"
     inkscape:pagecheckerboard="false"
     fit-margin-top="2"
     fit-margin-left="2"
     fit-margin-right="2"
     fit-margin-bottom="2"><inkscape:grid
       type="xygrid"
       id="grid10926"
       empspacing="8"
       visible="true"
       enabled="true"
       snapvisiblegridlinesonly="true"
       spacingx="8"
       spacingy="8" /></sodipodi:namedview><g
     id="Layer_2"
     display="none"
     style="display:none"
     transform="translate(0,426)" /><g
     style="display:none"
     id="Layer_2-3"
     display="none"
     transform="translate(603.28571,136.42857)" /><g
     id="g42"
     transform="matrix(2.7789269,0,0,-2.7784204,493.89923,234.45639)"
     style="fill:#fafaff;fill-opacity:1;stroke:#fafaff;stroke-width:5.92123318;stroke-miterlimit:4;stroke-dasharray:none;stroke-opacity:1"><g
       id="path44"><path
         inkscape:connector-curvature="0"
         style="color:#000000;font-style:normal;font-variant:normal;font-weight:normal;font-stretch:normal;font-size:medium;line-height:normal;font-family:sans-serif;font-variant-ligatures:normal;font-variant-position:normal;font-variant-caps:normal;font-variant-numeric:normal;font-variant-alternates:normal;font-variant-east-asian:normal;font-feature-settings:normal;text-indent:0;text-align:start;text-decoration:none;text-decoration-line:none;text-decoration-style:solid;text-decoration-color:#000000;letter-spacing:normal;word-spacing:normal;text-transform:none;writing-mode:lr-tb;direction:ltr;text-orientation:mixed;dominant-baseline:auto;baseline-shift:baseline;text-anchor:start;white-space:normal;shape-padding:0;clip-rule:nonzero;display:inline;overflow:visible;visibility:visible;opacity:1;isolation:auto;mix-blend-mode:normal;color-interpolation:sRGB;color-interpolation-filters:linearRGB;solid-color:#000000;solid-opacity:1;vector-effect:none;fill:#fafaff;fill-opacity:1;fill-rule:nonzero;stroke:none;stroke-width:5.92123318;stroke-linecap:butt;stroke-linejoin:miter;stroke-miterlimit:4;stroke-dasharray:none;stroke-dashoffset:0;stroke-opacity:1;color-rendering:auto;image-rendering:auto;shape-rendering:auto;text-rendering:auto;enable-background:accumulate"
         d="m 0,0 c 0,0 -77.177,77.182 -77.839,77.843 -0.731,0.661 -3.421,3.221 -7.768,3.221 -4.348,0 -7.106,-2.56 -7.758,-3.212 L -93.367,77.85 -171.215,0 c -4.285,-4.285 -4.285,-11.232 0,-15.52 4.285,-4.283 11.234,-4.283 15.52,0.002 L -96.578,43.6 -96.581,-85.601 c 0,-6.06 4.913,-10.972 10.974,-10.972 6.06,0 10.974,4.912 10.974,10.972 V 43.6 l 59.112,-59.118 c 4.286,-4.285 11.233,-4.285 15.519,-0.002 C 4.283,-11.232 4.283,-4.285 0,0"
         id="path48" /><path
         inkscape:connector-curvature="0"
         style="color:#000000;font-style:normal;font-variant:normal;font-weight:normal;font-stretch:normal;font-size:medium;line-height:normal;font-family:sans-serif;font-variant-ligatures:normal;font-variant-position:normal;font-variant-caps:normal;font-variant-numeric:normal;font-variant-alternates:normal;font-variant-east-asian:normal;font-feature-settings:normal;text-indent:0;text-align:start;text-decoration:none;text-decoration-line:none;text-decoration-style:solid;text-decoration-color:#000000;letter-spacing:normal;word-spacing:normal;text-transform:none;writing-mode:lr-tb;direction:ltr;text-orientation:mixed;dominant-baseline:auto;baseline-shift:baseline;text-anchor:start;white-space:normal;shape-padding:0;clip-rule:nonzero;display:inline;overflow:visible;visibility:visible;opacity:1;isolation:auto;mix-blend-mode:normal;color-interpolation:sRGB;color-interpolation-filters:linearRGB;solid-color:#000000;solid-opacity:1;vector-effect:none;fill:#fafaff;fill-opacity:1;fill-rule:nonzero;stroke:none;stroke-width:5.92123318;stroke-linecap:butt;stroke-linejoin:miter;stroke-miterlimit:4;stroke-dasharray:none;stroke-dashoffset:0;stroke-opacity:1;color-rendering:auto;image-rendering:auto;shape-rendering:auto;text-rendering:auto;enable-background:accumulate"
         d="m -85.607422,-99.533203 c -7.660576,0 -13.933594,6.271474 -13.933594,13.931641 l 0.002,122.052734 -54.062494,-54.0625 c -5.41753,-5.416268 -14.29011,-5.416353 -19.70703,-0.002 -5.41515,5.418942 -5.41634,14.290693 0,19.707031 l 77.847648,77.849609 0.002,0.002 c 0.863916,0.863916 4.341468,4.080079 9.851562,4.080079 5.509362,0 9.163489,-3.452449 9.753906,-3.986329 l 0.05469,-0.04883 0.05078,-0.05273 C -74.957595,79.148242 2.09375,2.09375 2.09375,2.09375 7.5078238,-3.322852 7.5069474,-12.194339 2.0917969,-17.613281 h -0.00195 c -5.4174698,-5.413678 -14.2859189,-5.413989 -19.7031249,0.002 h -0.002 l -54.056641,54.0625 V -85.601562 c 0,-7.660492 -6.275707,-13.931641 -13.935547,-13.931641 z m 0,5.919922 c 4.46016,0 8.013672,3.55221 8.013672,8.011719 V 50.748047 l 64.166016,-64.171875 c 3.154794,-3.154058 8.1775006,-3.154276 11.3320309,-0.002 3.1536466,3.157131 3.1534788,8.1790337 0.00195,11.332031 0,0 -77.0556309,77.06033 -77.7539059,77.757812 -0.876389,0.7936 -2.593546,2.439454 -5.759766,2.439454 -3.185906,0 -5.223978,-1.905619 -5.664062,-2.345704 l -0.002,-0.002 -77.847653,-77.849609 c -3.15326,-3.1532612 -3.15365,-8.1749 0,-11.332031 3.15307,-3.151601 8.17756,-3.151779 11.33203,0.002 l 64.171873,64.171875 -0.0039,-136.349609 c 0,-4.459834 3.552249,-8.011719 8.013672,-8.011719 z"
         id="path50" /></g></g></svg>