<?xml version="1.0" encoding="UTF-8" standalone="no"?>
<svg
   xmlns:dc="http://purl.org/dc/elements/1.1/"
   xmlns:cc="http://creativecommons.org/ns#"
   xmlns:rdf="http://www.w3.org/1999/02/22-rdf-syntax-ns#"
   xmlns:svg="http://www.w3.org/2000/svg"
   xmlns="http://www.w3.org/2000/svg"
   xmlns:xlink="http://www.w3.org/1999/xlink"
   xmlns:sodipodi="http://sodipodi.sourceforge.net/DTD/sodipodi-0.dtd"
   xmlns:inkscape="http://www.inkscape.org/namespaces/inkscape"
   version="1.1"
   x="0px"
   y="0px"
   width="86px"
   height="86px"
   viewBox="0 0 86 86"
   enable-background="new 0 0 86 86"
   xml:space="preserve"
   id="svg2"
   inkscape:version="0.92+devel unknown"
   sodipodi:docname="pan-transit3.svg"><metadata
     id="metadata49"><rdf:RDF><cc:Work
         rdf:about=""><dc:format>image/svg+xml</dc:format><dc:type
           rdf:resource="http://purl.org/dc/dcmitype/StillImage" /><dc:title /></cc:Work></rdf:RDF></metadata><defs
     id="defs47"><radialGradient
       r="42.6105"
       cy="43.466"
       cx="40.4091"
       gradientTransform="matrix(1.0021,0,0,1.0021,2.506,-0.5573)"
       gradientUnits="userSpaceOnUse"
       id="radialGradient11002"
       xlink:href="#SVGID_1_"
       inkscape:collect="always" /><radialGradient
       gradientUnits="userSpaceOnUse"
       gradientTransform="matrix(1.0021,0,0,1.0021,2.506,-0.5573)"
       r="42.6105"
       cy="43.466"
       cx="40.4091"
       id="SVGID_1_"><stop
         id="stop9"
         style="stop-color:#0fb3e9;stop-opacity:1;"
         offset="0" /><stop
         id="stop11"
         style="stop-color:#0e85d2"
         offset="1" /></radialGradient><linearGradient
       inkscape:collect="always"
       xlink:href="#SVGID_1_"
       id="linearGradient22"
       x1="0"
       y1="0"
       x2="43"
       y2="43"
       gradientUnits="userSpaceOnUse" /><clipPath
       id="clipPath36"
       clipPathUnits="userSpaceOnUse"><path
         inkscape:connector-curvature="0"
         id="path34"
         d="M 0,283.46 H 283.46 V 0 H 0 Z" /></clipPath></defs><sodipodi:namedview
     pagecolor="#ffffff"
     bordercolor="#666666"
     borderopacity="1"
     objecttolerance="1"
     gridtolerance="1"
     guidetolerance="1"
     inkscape:pageopacity="0"
     inkscape:pageshadow="2"
     inkscape:window-width="1920"
     inkscape:window-height="1136"
     id="namedview45"
     showgrid="true"
     inkscape:zoom="10.418605"
     inkscape:cx="43"
     inkscape:cy="43"
     inkscape:window-x="0"
     inkscape:window-y="27"
     inkscape:window-maximized="1"
     inkscape:current-layer="svg2"
     inkscape:showpageshadow="false"
     inkscape:measure-start="38.2563,40"
     inkscape:measure-end="47.6786,40"><inkscape:grid
       type="xygrid"
       id="grid10146"
       empspacing="10"
       visible="true"
       enabled="true"
       snapvisiblegridlinesonly="true" /></sodipodi:namedview><g
     id="Layer_2"
     display="none" /><g
     id="g894"
     style="fill:url(#linearGradient22);fill-opacity:1"><g
       display="none"
       id="Layer_2-1"
       style="display:none;fill:url(#linearGradient22);fill-opacity:1" /><circle
       style="fill:url(#linearGradient22);fill-opacity:1"
       id="circle13-2"
       r="42.700001"
       cy="43"
       cx="43" /></g><path
     style="fill:#000000;fill-opacity:0.17647059;stroke-width:2.16325951;stroke-linecap:round;stroke-linejoin:round"
     d="M 47.117188 17.429688 L 42.871094 20.4375 L 17.580078 44.769531 L 16.283203 46.044922 L 33.134766 62.896484 L 42.859375 72.619141 L 54.390625 84.150391 A 42.700001 42.700001 0 0 0 84.101562 54.414062 L 72.583984 42.896484 L 62.859375 33.171875 L 47.117188 17.429688 z "
     id="rect20" /><g
     id="g42"
     transform="matrix(0.30513597,0,0,-0.30508035,69.122172,40.634254)"
     style="fill:#fafaff;fill-opacity:1;stroke:#fafaff;stroke-width:5.92123318;stroke-miterlimit:4;stroke-dasharray:none;stroke-opacity:1"><g
       id="path44"><path
         style="color:#000000;font-style:normal;font-variant:normal;font-weight:normal;font-stretch:normal;font-size:medium;line-height:normal;font-family:sans-serif;font-variant-ligatures:normal;font-variant-position:normal;font-variant-caps:normal;font-variant-numeric:normal;font-variant-alternates:normal;font-variant-east-asian:normal;font-feature-settings:normal;text-indent:0;text-align:start;text-decoration:none;text-decoration-line:none;text-decoration-style:solid;text-decoration-color:#000000;letter-spacing:normal;word-spacing:normal;text-transform:none;writing-mode:lr-tb;direction:ltr;text-orientation:mixed;dominant-baseline:auto;baseline-shift:baseline;text-anchor:start;white-space:normal;shape-padding:0;clip-rule:nonzero;display:inline;overflow:visible;visibility:visible;opacity:1;isolation:auto;mix-blend-mode:normal;color-interpolation:sRGB;color-interpolation-filters:linearRGB;solid-color:#000000;solid-opacity:1;vector-effect:none;fill:#fafaff;fill-opacity:1;fill-rule:nonzero;stroke:none;stroke-width:5.92123318;stroke-linecap:butt;stroke-linejoin:miter;stroke-miterlimit:4;stroke-dasharray:none;stroke-dashoffset:0;stroke-opacity:1.0;filter-blend-mode:normal;filter-gaussianBlur-deviation:0;color-rendering:auto;image-rendering:auto;shape-rendering:auto;text-rendering:auto;enable-background:accumulate;"
         d="m 0,0 c 0,0 -77.177,77.182 -77.839,77.843 -0.731,0.661 -3.421,3.221 -7.768,3.221 -4.348,0 -7.106,-2.56 -7.758,-3.212 L -93.367,77.85 -171.215,0 c -4.285,-4.285 -4.285,-11.232 0,-15.52 4.285,-4.283 11.234,-4.283 15.52,0.002 L -96.578,43.6 -96.581,-85.601 c 0,-6.06 4.913,-10.972 10.974,-10.972 6.06,0 10.974,4.912 10.974,10.972 V 43.6 l 59.112,-59.118 c 4.286,-4.285 11.233,-4.285 15.519,-0.002 C 4.283,-11.232 4.283,-4.285 0,0"
         id="path48" /><path
         style="color:#000000;font-style:normal;font-variant:normal;font-weight:normal;font-stretch:normal;font-size:medium;line-height:normal;font-family:sans-serif;font-variant-ligatures:normal;font-variant-position:normal;font-variant-caps:normal;font-variant-numeric:normal;font-variant-alternates:normal;font-variant-east-asian:normal;font-feature-settings:normal;text-indent:0;text-align:start;text-decoration:none;text-decoration-line:none;text-decoration-style:solid;text-decoration-color:#000000;letter-spacing:normal;word-spacing:normal;text-transform:none;writing-mode:lr-tb;direction:ltr;text-orientation:mixed;dominant-baseline:auto;baseline-shift:baseline;text-anchor:start;white-space:normal;shape-padding:0;clip-rule:nonzero;display:inline;overflow:visible;visibility:visible;opacity:1;isolation:auto;mix-blend-mode:normal;color-interpolation:sRGB;color-interpolation-filters:linearRGB;solid-color:#000000;solid-opacity:1;vector-effect:none;fill:#fafaff;fill-opacity:1;fill-rule:nonzero;stroke:none;stroke-width:5.92123318;stroke-linecap:butt;stroke-linejoin:miter;stroke-miterlimit:4;stroke-dasharray:none;stroke-dashoffset:0;stroke-opacity:1.0;filter-blend-mode:normal;filter-gaussianBlur-deviation:0;color-rendering:auto;image-rendering:auto;shape-rendering:auto;text-rendering:auto;enable-background:accumulate;"
         d="M -85.607422 -99.533203 C -93.267998 -99.533203 -99.541016 -93.261729 -99.541016 -85.601562 L -99.539062 36.451172 L -153.60156 -17.611328 C -159.01909 -23.027596 -167.89167 -23.027681 -173.30859 -17.613281 C -178.72374 -12.194339 -178.72493 -3.322588 -173.30859 2.09375 L -95.460938 79.943359 L -95.458984 79.945312 C -94.595068 80.809228 -91.117516 84.025391 -85.607422 84.025391 C -80.09806 84.025391 -76.443933 80.572942 -75.853516 80.039062 L -75.798828 79.990234 L -75.748047 79.9375 C -74.957595 79.148242 2.09375 2.09375 2.09375 2.09375 C 7.5078238 -3.322852 7.5069474 -12.194339 2.0917969 -17.613281 L 2.0898438 -17.613281 C -3.327626 -23.026959 -12.196075 -23.02727 -17.613281 -17.611328 L -17.615234 -17.611328 L -71.671875 36.451172 L -71.671875 -85.601562 C -71.671875 -93.262054 -77.947582 -99.533203 -85.607422 -99.533203 z M -85.607422 -93.613281 C -81.147262 -93.613281 -77.59375 -90.061071 -77.59375 -85.601562 L -77.59375 50.748047 L -13.427734 -13.423828 C -10.27294 -16.577886 -5.2502334 -16.578104 -2.0957031 -13.425781 C 1.0579435 -10.26865 1.0577757 -5.2467473 -2.09375 -2.09375 C -2.09375 -2.09375 -79.149381 74.96658 -79.847656 75.664062 C -80.724045 76.457662 -82.441202 78.103516 -85.607422 78.103516 C -88.793328 78.103516 -90.8314 76.197897 -91.271484 75.757812 L -91.273438 75.755859 L -169.12109 -2.09375 C -172.27435 -5.2470112 -172.27474 -10.26865 -169.12109 -13.425781 C -165.96802 -16.577382 -160.94353 -16.57756 -157.78906 -13.423828 L -93.617188 50.748047 L -93.621094 -85.601562 C -93.621094 -90.061396 -90.068845 -93.613281 -85.607422 -93.613281 z "
         id="path50" /></g></g></svg>
